<svg viewBox="0 0 620 200" xmlns="http://www.w3.org/2000/svg" role="img" aria-label="Binary counter block diagram">
          <defs><marker id="arr52a" markerWidth="8" markerHeight="6" refX="7" refY="3" orient="auto"><polygon points="0 0, 8 3, 0 6" fill="#94a3b8"/></marker></defs>
          <text x="310" y="24" fill="#38bdf8" font-size="13" text-anchor="middle" font-family="Outfit,sans-serif">Binary up-counter datapath</text>
          <rect x="40" y="70" width="90" height="50" rx="8" fill="#0c1526" stroke="#38bdf8"/>
          <text x="85" y="100" fill="#e2e8f0" font-size="11" text-anchor="middle" font-family="Outfit,sans-serif">count[N-1:0]</text>
          <rect x="180" y="60" width="100" height="70" rx="8" fill="rgba(45,212,191,.12)" stroke="#2dd4bf"/>
          <text x="230" y="92" fill="#e2e8f0" font-size="11" text-anchor="middle" font-family="Outfit,sans-serif">+1 / -1</text>
          <text x="230" y="112" fill="#94a3b8" font-size="11" text-anchor="middle" font-family="Outfit,sans-serif">adder</text>
          <rect x="330" y="70" width="90" height="50" rx="8" fill="rgba(167,139,250,.12)" stroke="#a78bfa"/>
          <text x="375" y="100" fill="#e2e8f0" font-size="11" text-anchor="middle" font-family="Outfit,sans-serif">mux</text>
          <text x="375" y="115" fill="#94a3b8" font-size="11" text-anchor="middle" font-family="Outfit,sans-serif">load/en</text>
          <rect x="470" y="70" width="110" height="50" rx="8" fill="#0c1526" stroke="#38bdf8"/>
          <text x="525" y="92" fill="#e2e8f0" font-size="11" text-anchor="middle" font-family="Outfit,sans-serif">DFF bank</text>
          <text x="525" y="110" fill="#94a3b8" font-size="11" text-anchor="middle" font-family="Outfit,sans-serif">posedge clk</text>
          <line x1="130" y1="95" x2="180" y2="95" stroke="#94a3b8" marker-end="url(#arr52a)"/>
          <line x1="280" y1="95" x2="330" y2="95" stroke="#94a3b8" marker-end="url(#arr52a)"/>
          <line x1="420" y1="95" x2="470" y2="95" stroke="#94a3b8" marker-end="url(#arr52a)"/>
          <path d="M 525 120 L 525 155 L 85 155 L 85 120" fill="none" stroke="#a78bfa" marker-end="url(#arr52a)"/>
          <text x="310" y="175" fill="#94a3b8" font-size="11" text-anchor="middle" font-family="Outfit,sans-serif">Feedback loop: registered count feeds adder next cycle</text>
        </svg>