<svg viewBox="0 0 700 300" xmlns="http://www.w3.org/2000/svg" role="img" aria-label="Datapath and control block diagram">
<defs>
<marker id="m74-dc-arr" markerWidth="8" markerHeight="8" refX="7" refY="3" orient="auto"><path d="M0,0 L7,3 L0,6 Z" fill="#a78bfa"/></marker>
<marker id="m74-dc-blue" markerWidth="8" markerHeight="8" refX="7" refY="3" orient="auto"><path d="M0,0 L7,3 L0,6 Z" fill="#38bdf8"/></marker>
</defs>
<text x="350" y="22" fill="#38bdf8" font-size="13" text-anchor="middle" font-family="Outfit,sans-serif">controlled datapath slice</text>
<rect x="40" y="200" width="620" height="80" rx="12" fill="#0c1526" stroke="#38bdf8"/>
<text x="350" y="225" fill="#38bdf8" font-size="11" text-anchor="middle" font-family="Outfit,sans-serif">DATAPATH</text>
<rect x="70" y="240" width="90" height="30" rx="6" fill="#0c1526" stroke="#2dd4bf"/><text x="115" y="260" fill="#e2e8f0" font-size="9" text-anchor="middle" font-family="monospace">regfile</text>
<rect x="190" y="240" width="70" height="30" rx="6" fill="#0c1526" stroke="#2dd4bf"/><text x="225" y="260" fill="#e2e8f0" font-size="9" text-anchor="middle" font-family="monospace">mux A</text>
<rect x="290" y="240" width="70" height="30" rx="6" fill="#0c1526" stroke="#2dd4bf"/><text x="325" y="260" fill="#e2e8f0" font-size="9" text-anchor="middle" font-family="monospace">mux B</text>
<rect x="390" y="235" width="80" height="40" rx="6" fill="rgba(167,139,250,.15)" stroke="#a78bfa"/><text x="430" y="260" fill="#e2e8f0" font-size="9" text-anchor="middle" font-family="monospace">ALU</text>
<rect x="500" y="240" width="90" height="30" rx="6" fill="#0c1526" stroke="#2dd4bf"/><text x="545" y="260" fill="#e2e8f0" font-size="9" text-anchor="middle" font-family="monospace">result_r</text>
<line x1="160" y1="255" x2="190" y2="255" stroke="#38bdf8" stroke-width="1.5"/>
<line x1="260" y1="255" x2="290" y2="255" stroke="#38bdf8" stroke-width="1.5"/>
<line x1="360" y1="255" x2="390" y2="255" stroke="#38bdf8" stroke-width="1.5"/>
<line x1="470" y1="255" x2="500" y2="255" stroke="#38bdf8" stroke-width="1.5"/>
<rect x="200" y="55" width="300" height="110" rx="12" fill="#0c1526" stroke="#a78bfa"/>
<text x="350" y="82" fill="#a78bfa" font-size="12" text-anchor="middle" font-family="Outfit,sans-serif">CONTROL FSM</text>
<text x="350" y="105" fill="#94a3b8" font-size="9" text-anchor="middle" font-family="monospace">FETCH → DECODE → EXEC → WRITEBACK</text>
<circle cx="280" cy="135" r="22" fill="#0c1526" stroke="#2dd4bf"/><text x="280" y="139" fill="#e2e8f0" font-size="8" text-anchor="middle" font-family="Outfit,sans-serif">DEC</text>
<circle cx="420" cy="135" r="22" fill="#0c1526" stroke="#38bdf8"/><text x="420" y="139" fill="#e2e8f0" font-size="8" text-anchor="middle" font-family="Outfit,sans-serif">EXE</text>
<line x1="250" y1="155" x2="115" y2="200" stroke="#a78bfa" stroke-width="1.2" marker-end="url(#m74-dc-arr)"/>
<text x="160" y="178" fill="#a78bfa" font-size="8" font-family="Outfit,sans-serif">reg_we, waddr</text>
<line x1="350" y1="165" x2="325" y2="200" stroke="#a78bfa" stroke-width="1.2" marker-end="url(#m74-dc-arr)"/>
<text x="330" y="188" fill="#a78bfa" font-size="8" font-family="Outfit,sans-serif">mux_sel</text>
<line x1="450" y1="155" x2="430" y2="200" stroke="#a78bfa" stroke-width="1.2" marker-end="url(#m74-dc-arr)"/>
<text x="455" y="178" fill="#a78bfa" font-size="8" font-family="Outfit,sans-serif">alu_op</text>
<line x1="500" y1="155" x2="545" y2="200" stroke="#a78bfa" stroke-width="1.2" marker-end="url(#m74-dc-arr)"/>
<text x="530" y="188" fill="#a78bfa" font-size="8" font-family="Outfit,sans-serif">res_en</text>
</svg>