<svg viewBox="0 0 680 320" xmlns="http://www.w3.org/2000/svg" role="img" aria-label="Forwarding paths diagram">
<defs>
<marker id="m84-fwd" markerWidth="8" markerHeight="8" refX="7" refY="3" orient="auto"><path d="M0,0 L7,3 L0,6 Z" fill="#2dd4bf"/></marker>
<marker id="m84-arr" markerWidth="8" markerHeight="8" refX="7" refY="3" orient="auto"><path d="M0,0 L7,3 L0,6 Z" fill="#38bdf8"/></marker>
</defs>
<text x="340" y="22" fill="#38bdf8" font-size="13" text-anchor="middle" font-family="Outfit,sans-serif">Bypass paths into EX stage ALU operands</text>
<rect x="40" y="50" width="70" height="40" rx="6" fill="#0c1526" stroke="#38bdf8"/><text x="75" y="75" fill="#e2e8f0" font-size="9" text-anchor="middle" font-family="Outfit,sans-serif">IF/ID</text>
<rect x="130" y="50" width="70" height="40" rx="6" fill="#0c1526" stroke="#a78bfa"/><text x="165" y="75" fill="#e2e8f0" font-size="9" text-anchor="middle" font-family="Outfit,sans-serif">ID/EX</text>
<rect x="220" y="40" width="100" height="60" rx="8" fill="rgba(45,212,191,.1)" stroke="#2dd4bf" stroke-width="2"/><text x="270" y="65" fill="#2dd4bf" font-size="10" text-anchor="middle" font-family="Outfit,sans-serif">EX</text><text x="270" y="82" fill="#94a3b8" font-size="8" text-anchor="middle" font-family="monospace">ALU + fwd mux</text>
<rect x="350" y="50" width="80" height="40" rx="6" fill="#0c1526" stroke="#fbbf24"/><text x="390" y="68" fill="#fbbf24" font-size="9" text-anchor="middle" font-family="Outfit,sans-serif">EX/MEM</text><text x="390" y="82" fill="#94a3b8" font-size="7" text-anchor="middle" font-family="monospace">alu_result</text>
<rect x="460" y="50" width="80" height="40" rx="6" fill="#0c1526" stroke="#a78bfa"/><text x="500" y="68" fill="#a78bfa" font-size="9" text-anchor="middle" font-family="Outfit,sans-serif">MEM/WB</text><text x="500" y="82" fill="#94a3b8" font-size="7" text-anchor="middle" font-family="monospace">wb_data</text>
<rect x="570" y="50" width="70" height="40" rx="6" fill="#0c1526" stroke="#2dd4bf"/><text x="605" y="75" fill="#e2e8f0" font-size="9" text-anchor="middle" font-family="Outfit,sans-serif">WB</text>
<line x1="110" y1="70" x2="130" y2="70" stroke="#38bdf8" stroke-width="1.5" marker-end="url(#m84-arr)"/>
<line x1="200" y1="70" x2="220" y2="70" stroke="#38bdf8" stroke-width="1.5" marker-end="url(#m84-arr)"/>
<line x1="320" y1="70" x2="350" y2="70" stroke="#38bdf8" stroke-width="1.5" marker-end="url(#m84-arr)"/>
<line x1="430" y1="70" x2="460" y2="70" stroke="#38bdf8" stroke-width="1.5" marker-end="url(#m84-arr)"/>
<line x1="540" y1="70" x2="570" y2="70" stroke="#38bdf8" stroke-width="1.5" marker-end="url(#m84-arr)"/>
<path d="M390,90 C390,180 270,180 270,100" fill="none" stroke="#fbbf24" stroke-width="2" marker-end="url(#m84-fwd)"/>
<text x="330" y="200" fill="#fbbf24" font-size="9" font-family="Outfit,sans-serif">Forward A: EX/MEM → EX</text>
<path d="M500,90 C500,240 250,240 250,100" fill="none" stroke="#a78bfa" stroke-width="2" marker-end="url(#m84-fwd)"/>
<text x="380" y="255" fill="#a78bfa" font-size="9" font-family="Outfit,sans-serif">Forward B: MEM/WB → EX</text>
<rect x="180" y="270" width="120" height="36" rx="6" fill="#0c1526" stroke="#94a3b8"/><text x="240" y="292" fill="#94a3b8" font-size="9" text-anchor="middle" font-family="Outfit,sans-serif">Regfile read</text>
<line x1="240" y1="270" x2="255" y2="100" stroke="#94a3b8" stroke-width="1" stroke-dasharray="3,3"/>
<text x="340" y="305" fill="#94a3b8" font-size="9" text-anchor="middle" font-family="Outfit,sans-serif">Mux selects: regfile vs EX/MEM vs MEM/WB (priority matters)</text>
</svg>