<svg viewBox="0 0 680 295" xmlns="http://www.w3.org/2000/svg" role="img" aria-label="Register file block diagram">
          <defs><marker id="arr54a" markerWidth="8" markerHeight="6" refX="7" refY="3" orient="auto"><polygon points="0 0, 8 3, 0 6" fill="#94a3b8"/></marker></defs>
          <text x="340" y="24" fill="#38bdf8" font-size="13" text-anchor="middle" font-family="Outfit,sans-serif">8×32 register file — 1W / 2R</text>
          <rect x="200" y="50" width="280" height="120" rx="10" fill="#0c1526" stroke="#38bdf8"/>
          <text x="340" y="85" fill="#e2e8f0" font-size="12" text-anchor="middle" font-family="Outfit,sans-serif">mem[0:7]</text>
          <text x="340" y="110" fill="#94a3b8" font-size="11" text-anchor="middle" font-family="Outfit,sans-serif">32-bit × 8 entries</text>
          <text x="340" y="145" fill="#a78bfa" font-size="11" text-anchor="middle" font-family="Outfit,sans-serif">r0 always reads as 0 (optional)</text>
          <rect x="30" y="60" width="80" height="35" rx="6" fill="rgba(248,113,113,.12)" stroke="#f87171"/>
          <text x="70" y="82" fill="#e2e8f0" font-size="11" text-anchor="middle" font-family="Outfit,sans-serif">waddr</text>
          <line x1="110" y1="77" x2="200" y2="90" stroke="#f87171" marker-end="url(#arr54a)"/>
          <rect x="30" y="110" width="80" height="35" rx="6" fill="rgba(248,113,113,.12)" stroke="#f87171"/>
          <text x="70" y="132" fill="#e2e8f0" font-size="11" text-anchor="middle" font-family="Outfit,sans-serif">wdata</text>
          <line x1="110" y1="127" x2="200" y2="115" stroke="#f87171" marker-end="url(#arr54a)"/>
          <rect x="30" y="160" width="80" height="35" rx="6" fill="rgba(248,113,113,.12)" stroke="#f87171"/>
          <text x="70" y="182" fill="#e2e8f0" font-size="11" text-anchor="middle" font-family="Outfit,sans-serif">we</text>
          <line x1="110" y1="177" x2="200" y2="140" stroke="#f87171" marker-end="url(#arr54a)"/>
          <rect x="30" y="210" width="80" height="35" rx="6" fill="rgba(45,212,191,.12)" stroke="#2dd4bf"/>
          <text x="70" y="232" fill="#e2e8f0" font-size="11" text-anchor="middle" font-family="Outfit,sans-serif">raddr_a</text>
          <line x1="110" y1="227" x2="200" y2="155" stroke="#2dd4bf" marker-end="url(#arr54a)"/>
          <rect x="570" y="70" width="90" height="35" rx="6" fill="rgba(45,212,191,.12)" stroke="#2dd4bf"/>
          <text x="615" y="92" fill="#e2e8f0" font-size="11" text-anchor="middle" font-family="Outfit,sans-serif">rdata_a</text>
          <line x1="480" y1="95" x2="570" y2="87" stroke="#2dd4bf" marker-end="url(#arr54a)"/>
          <rect x="570" y="130" width="90" height="35" rx="6" fill="rgba(45,212,191,.12)" stroke="#2dd4bf"/>
          <text x="615" y="152" fill="#e2e8f0" font-size="11" text-anchor="middle" font-family="Outfit,sans-serif">rdata_b</text>
          <line x1="480" y1="120" x2="570" y2="147" stroke="#2dd4bf" marker-end="url(#arr54a)"/>
<rect x="30" y="235" width="80" height="35" rx="6" fill="rgba(45,212,191,.12)" stroke="#2dd4bf"/>
<text x="70" y="257" fill="#e2e8f0" font-size="11" text-anchor="middle" font-family="Outfit,sans-serif">raddr_b</text>
<line x1="110" y1="252" x2="200" y2="165" stroke="#2dd4bf" marker-end="url(#arr54a)"/>
        </svg>